<?xml version="1.0" encoding="utf-8" standalone="no"?>
<!DOCTYPE svg PUBLIC "-//W3C//DTD SVG 1.1//EN"
  "http://www.w3.org/Graphics/SVG/1.1/DTD/svg11.dtd">
<!-- Created with matplotlib (http://matplotlib.org/) -->
<svg height="432pt" version="1.1" viewBox="0 0 432 432" width="432pt" xmlns="http://www.w3.org/2000/svg" xmlns:xlink="http://www.w3.org/1999/xlink">
 <defs>
  <style type="text/css">
*{stroke-linecap:butt;stroke-linejoin:round;}
  </style>
 </defs>
 <g id="figure_1">
  <g id="patch_1">
   <path d="M 0 432 
L 432 432 
L 432 0 
L 0 0 
z
" style="fill:#ffffff;"/>
  </g>
  <g id="axes_1">
   <g id="patch_2">
    <path d="M 47.72 235.69 
L 418.68 235.69 
L 418.68 26.88 
L 47.72 26.88 
z
" style="fill:#ffffff;"/>
   </g>
   <g id="matplotlib.axis_1">
    <g id="xtick_1">
     <g id="line2d_1">
      <defs>
       <path d="M 0 0 
L 0 3.5 
" id="m0ff18983e1" style="stroke:#000000;stroke-width:0.8;"/>
      </defs>
      <g>
       <use style="stroke:#000000;stroke-width:0.8;" x="70.905" xlink:href="#m0ff18983e1" y="235.69"/>
      </g>
     </g>
     <g id="text_1">
      <!-- All within Grupo_Experimental -->
      <defs>
       <path d="M 34.1875 63.1875 
L 20.796875 26.90625 
L 47.609375 26.90625 
z
M 28.609375 72.90625 
L 39.796875 72.90625 
L 67.578125 0 
L 57.328125 0 
L 50.6875 18.703125 
L 17.828125 18.703125 
L 11.1875 0 
L 0.78125 0 
z
" id="DejaVuSans-41"/>
       <path d="M 9.421875 75.984375 
L 18.40625 75.984375 
L 18.40625 0 
L 9.421875 0 
z
" id="DejaVuSans-6c"/>
       <path id="DejaVuSans-20"/>
       <path d="M 4.203125 54.6875 
L 13.1875 54.6875 
L 24.421875 12.015625 
L 35.59375 54.6875 
L 46.1875 54.6875 
L 57.421875 12.015625 
L 68.609375 54.6875 
L 77.59375 54.6875 
L 63.28125 0 
L 52.6875 0 
L 40.921875 44.828125 
L 29.109375 0 
L 18.5 0 
z
" id="DejaVuSans-77"/>
       <path d="M 9.421875 54.6875 
L 18.40625 54.6875 
L 18.40625 0 
L 9.421875 0 
z
M 9.421875 75.984375 
L 18.40625 75.984375 
L 18.40625 64.59375 
L 9.421875 64.59375 
z
" id="DejaVuSans-69"/>
       <path d="M 18.3125 70.21875 
L 18.3125 54.6875 
L 36.8125 54.6875 
L 36.8125 47.703125 
L 18.3125 47.703125 
L 18.3125 18.015625 
Q 18.3125 11.328125 20.140625 9.421875 
Q 21.96875 7.515625 27.59375 7.515625 
L 36.8125 7.515625 
L 36.8125 0 
L 27.59375 0 
Q 17.1875 0 13.234375 3.875 
Q 9.28125 7.765625 9.28125 18.015625 
L 9.28125 47.703125 
L 2.6875 47.703125 
L 2.6875 54.6875 
L 9.28125 54.6875 
L 9.28125 70.21875 
z
" id="DejaVuSans-74"/>
       <path d="M 54.890625 33.015625 
L 54.890625 0 
L 45.90625 0 
L 45.90625 32.71875 
Q 45.90625 40.484375 42.875 44.328125 
Q 39.84375 48.1875 33.796875 48.1875 
Q 26.515625 48.1875 22.3125 43.546875 
Q 18.109375 38.921875 18.109375 30.90625 
L 18.109375 0 
L 9.078125 0 
L 9.078125 75.984375 
L 18.109375 75.984375 
L 18.109375 46.1875 
Q 21.34375 51.125 25.703125 53.5625 
Q 30.078125 56 35.796875 56 
Q 45.21875 56 50.046875 50.171875 
Q 54.890625 44.34375 54.890625 33.015625 
z
" id="DejaVuSans-68"/>
       <path d="M 54.890625 33.015625 
L 54.890625 0 
L 45.90625 0 
L 45.90625 32.71875 
Q 45.90625 40.484375 42.875 44.328125 
Q 39.84375 48.1875 33.796875 48.1875 
Q 26.515625 48.1875 22.3125 43.546875 
Q 18.109375 38.921875 18.109375 30.90625 
L 18.109375 0 
L 9.078125 0 
L 9.078125 54.6875 
L 18.109375 54.6875 
L 18.109375 46.1875 
Q 21.34375 51.125 25.703125 53.5625 
Q 30.078125 56 35.796875 56 
Q 45.21875 56 50.046875 50.171875 
Q 54.890625 44.34375 54.890625 33.015625 
z
" id="DejaVuSans-6e"/>
       <path d="M 59.515625 10.40625 
L 59.515625 29.984375 
L 43.40625 29.984375 
L 43.40625 38.09375 
L 69.28125 38.09375 
L 69.28125 6.78125 
Q 63.578125 2.734375 56.6875 0.65625 
Q 49.8125 -1.421875 42 -1.421875 
Q 24.90625 -1.421875 15.25 8.5625 
Q 5.609375 18.5625 5.609375 36.375 
Q 5.609375 54.25 15.25 64.234375 
Q 24.90625 74.21875 42 74.21875 
Q 49.125 74.21875 55.546875 72.453125 
Q 61.96875 70.703125 67.390625 67.28125 
L 67.390625 56.78125 
Q 61.921875 61.421875 55.765625 63.765625 
Q 49.609375 66.109375 42.828125 66.109375 
Q 29.4375 66.109375 22.71875 58.640625 
Q 16.015625 51.171875 16.015625 36.375 
Q 16.015625 21.625 22.71875 14.15625 
Q 29.4375 6.6875 42.828125 6.6875 
Q 48.046875 6.6875 52.140625 7.59375 
Q 56.25 8.5 59.515625 10.40625 
z
" id="DejaVuSans-47"/>
       <path d="M 41.109375 46.296875 
Q 39.59375 47.171875 37.8125 47.578125 
Q 36.03125 48 33.890625 48 
Q 26.265625 48 22.1875 43.046875 
Q 18.109375 38.09375 18.109375 28.8125 
L 18.109375 0 
L 9.078125 0 
L 9.078125 54.6875 
L 18.109375 54.6875 
L 18.109375 46.1875 
Q 20.953125 51.171875 25.484375 53.578125 
Q 30.03125 56 36.53125 56 
Q 37.453125 56 38.578125 55.875 
Q 39.703125 55.765625 41.0625 55.515625 
z
" id="DejaVuSans-72"/>
       <path d="M 8.5 21.578125 
L 8.5 54.6875 
L 17.484375 54.6875 
L 17.484375 21.921875 
Q 17.484375 14.15625 20.5 10.265625 
Q 23.53125 6.390625 29.59375 6.390625 
Q 36.859375 6.390625 41.078125 11.03125 
Q 45.3125 15.671875 45.3125 23.6875 
L 45.3125 54.6875 
L 54.296875 54.6875 
L 54.296875 0 
L 45.3125 0 
L 45.3125 8.40625 
Q 42.046875 3.421875 37.71875 1 
Q 33.40625 -1.421875 27.6875 -1.421875 
Q 18.265625 -1.421875 13.375 4.4375 
Q 8.5 10.296875 8.5 21.578125 
z
M 31.109375 56 
z
" id="DejaVuSans-75"/>
       <path d="M 18.109375 8.203125 
L 18.109375 -20.796875 
L 9.078125 -20.796875 
L 9.078125 54.6875 
L 18.109375 54.6875 
L 18.109375 46.390625 
Q 20.953125 51.265625 25.265625 53.625 
Q 29.59375 56 35.59375 56 
Q 45.5625 56 51.78125 48.09375 
Q 58.015625 40.1875 58.015625 27.296875 
Q 58.015625 14.40625 51.78125 6.484375 
Q 45.5625 -1.421875 35.59375 -1.421875 
Q 29.59375 -1.421875 25.265625 0.953125 
Q 20.953125 3.328125 18.109375 8.203125 
z
M 48.6875 27.296875 
Q 48.6875 37.203125 44.609375 42.84375 
Q 40.53125 48.484375 33.40625 48.484375 
Q 26.265625 48.484375 22.1875 42.84375 
Q 18.109375 37.203125 18.109375 27.296875 
Q 18.109375 17.390625 22.1875 11.75 
Q 26.265625 6.109375 33.40625 6.109375 
Q 40.53125 6.109375 44.609375 11.75 
Q 48.6875 17.390625 48.6875 27.296875 
z
" id="DejaVuSans-70"/>
       <path d="M 30.609375 48.390625 
Q 23.390625 48.390625 19.1875 42.75 
Q 14.984375 37.109375 14.984375 27.296875 
Q 14.984375 17.484375 19.15625 11.84375 
Q 23.34375 6.203125 30.609375 6.203125 
Q 37.796875 6.203125 41.984375 11.859375 
Q 46.1875 17.53125 46.1875 27.296875 
Q 46.1875 37.015625 41.984375 42.703125 
Q 37.796875 48.390625 30.609375 48.390625 
z
M 30.609375 56 
Q 42.328125 56 49.015625 48.375 
Q 55.71875 40.765625 55.71875 27.296875 
Q 55.71875 13.875 49.015625 6.21875 
Q 42.328125 -1.421875 30.609375 -1.421875 
Q 18.84375 -1.421875 12.171875 6.21875 
Q 5.515625 13.875 5.515625 27.296875 
Q 5.515625 40.765625 12.171875 48.375 
Q 18.84375 56 30.609375 56 
z
" id="DejaVuSans-6f"/>
       <path d="M 50.984375 -16.609375 
L 50.984375 -23.578125 
L -0.984375 -23.578125 
L -0.984375 -16.609375 
z
" id="DejaVuSans-5f"/>
       <path d="M 9.8125 72.90625 
L 55.90625 72.90625 
L 55.90625 64.59375 
L 19.671875 64.59375 
L 19.671875 43.015625 
L 54.390625 43.015625 
L 54.390625 34.71875 
L 19.671875 34.71875 
L 19.671875 8.296875 
L 56.78125 8.296875 
L 56.78125 0 
L 9.8125 0 
z
" id="DejaVuSans-45"/>
       <path d="M 54.890625 54.6875 
L 35.109375 28.078125 
L 55.90625 0 
L 45.3125 0 
L 29.390625 21.484375 
L 13.484375 0 
L 2.875 0 
L 24.125 28.609375 
L 4.6875 54.6875 
L 15.28125 54.6875 
L 29.78125 35.203125 
L 44.28125 54.6875 
z
" id="DejaVuSans-78"/>
       <path d="M 56.203125 29.59375 
L 56.203125 25.203125 
L 14.890625 25.203125 
Q 15.484375 15.921875 20.484375 11.0625 
Q 25.484375 6.203125 34.421875 6.203125 
Q 39.59375 6.203125 44.453125 7.46875 
Q 49.3125 8.734375 54.109375 11.28125 
L 54.109375 2.78125 
Q 49.265625 0.734375 44.1875 -0.34375 
Q 39.109375 -1.421875 33.890625 -1.421875 
Q 20.796875 -1.421875 13.15625 6.1875 
Q 5.515625 13.8125 5.515625 26.8125 
Q 5.515625 40.234375 12.765625 48.109375 
Q 20.015625 56 32.328125 56 
Q 43.359375 56 49.78125 48.890625 
Q 56.203125 41.796875 56.203125 29.59375 
z
M 47.21875 32.234375 
Q 47.125 39.59375 43.09375 43.984375 
Q 39.0625 48.390625 32.421875 48.390625 
Q 24.90625 48.390625 20.390625 44.140625 
Q 15.875 39.890625 15.1875 32.171875 
z
" id="DejaVuSans-65"/>
       <path d="M 52 44.1875 
Q 55.375 50.25 60.0625 53.125 
Q 64.75 56 71.09375 56 
Q 79.640625 56 84.28125 50.015625 
Q 88.921875 44.046875 88.921875 33.015625 
L 88.921875 0 
L 79.890625 0 
L 79.890625 32.71875 
Q 79.890625 40.578125 77.09375 44.375 
Q 74.3125 48.1875 68.609375 48.1875 
Q 61.625 48.1875 57.5625 43.546875 
Q 53.515625 38.921875 53.515625 30.90625 
L 53.515625 0 
L 44.484375 0 
L 44.484375 32.71875 
Q 44.484375 40.625 41.703125 44.40625 
Q 38.921875 48.1875 33.109375 48.1875 
Q 26.21875 48.1875 22.15625 43.53125 
Q 18.109375 38.875 18.109375 30.90625 
L 18.109375 0 
L 9.078125 0 
L 9.078125 54.6875 
L 18.109375 54.6875 
L 18.109375 46.1875 
Q 21.1875 51.21875 25.484375 53.609375 
Q 29.78125 56 35.6875 56 
Q 41.65625 56 45.828125 52.96875 
Q 50 49.953125 52 44.1875 
z
" id="DejaVuSans-6d"/>
       <path d="M 34.28125 27.484375 
Q 23.390625 27.484375 19.1875 25 
Q 14.984375 22.515625 14.984375 16.5 
Q 14.984375 11.71875 18.140625 8.90625 
Q 21.296875 6.109375 26.703125 6.109375 
Q 34.1875 6.109375 38.703125 11.40625 
Q 43.21875 16.703125 43.21875 25.484375 
L 43.21875 27.484375 
z
M 52.203125 31.203125 
L 52.203125 0 
L 43.21875 0 
L 43.21875 8.296875 
Q 40.140625 3.328125 35.546875 0.953125 
Q 30.953125 -1.421875 24.3125 -1.421875 
Q 15.921875 -1.421875 10.953125 3.296875 
Q 6 8.015625 6 15.921875 
Q 6 25.140625 12.171875 29.828125 
Q 18.359375 34.515625 30.609375 34.515625 
L 43.21875 34.515625 
L 43.21875 35.40625 
Q 43.21875 41.609375 39.140625 45 
Q 35.0625 48.390625 27.6875 48.390625 
Q 23 48.390625 18.546875 47.265625 
Q 14.109375 46.140625 10.015625 43.890625 
L 10.015625 52.203125 
Q 14.9375 54.109375 19.578125 55.046875 
Q 24.21875 56 28.609375 56 
Q 40.484375 56 46.34375 49.84375 
Q 52.203125 43.703125 52.203125 31.203125 
z
" id="DejaVuSans-61"/>
      </defs>
      <g transform="translate(73.525313 394.122813)rotate(-90)scale(0.1 -0.1)">
       <use xlink:href="#DejaVuSans-41"/>
       <use x="68.408203" xlink:href="#DejaVuSans-6c"/>
       <use x="96.191406" xlink:href="#DejaVuSans-6c"/>
       <use x="123.974609" xlink:href="#DejaVuSans-20"/>
       <use x="155.761719" xlink:href="#DejaVuSans-77"/>
       <use x="237.548828" xlink:href="#DejaVuSans-69"/>
       <use x="265.332031" xlink:href="#DejaVuSans-74"/>
       <use x="304.541016" xlink:href="#DejaVuSans-68"/>
       <use x="367.919922" xlink:href="#DejaVuSans-69"/>
       <use x="395.703125" xlink:href="#DejaVuSans-6e"/>
       <use x="459.082031" xlink:href="#DejaVuSans-20"/>
       <use x="490.869141" xlink:href="#DejaVuSans-47"/>
       <use x="568.359375" xlink:href="#DejaVuSans-72"/>
       <use x="609.472656" xlink:href="#DejaVuSans-75"/>
       <use x="672.851562" xlink:href="#DejaVuSans-70"/>
       <use x="736.328125" xlink:href="#DejaVuSans-6f"/>
       <use x="797.509766" xlink:href="#DejaVuSans-5f"/>
       <use x="847.509766" xlink:href="#DejaVuSans-45"/>
       <use x="910.693359" xlink:href="#DejaVuSans-78"/>
       <use x="969.873047" xlink:href="#DejaVuSans-70"/>
       <use x="1033.349609" xlink:href="#DejaVuSans-65"/>
       <use x="1094.873047" xlink:href="#DejaVuSans-72"/>
       <use x="1135.986328" xlink:href="#DejaVuSans-69"/>
       <use x="1163.769531" xlink:href="#DejaVuSans-6d"/>
       <use x="1261.181641" xlink:href="#DejaVuSans-65"/>
       <use x="1322.705078" xlink:href="#DejaVuSans-6e"/>
       <use x="1386.083984" xlink:href="#DejaVuSans-74"/>
       <use x="1425.292969" xlink:href="#DejaVuSans-61"/>
       <use x="1486.572266" xlink:href="#DejaVuSans-6c"/>
      </g>
     </g>
    </g>
    <g id="xtick_2">
     <g id="line2d_2">
      <g>
       <use style="stroke:#000000;stroke-width:0.8;" x="117.275" xlink:href="#m0ff18983e1" y="235.69"/>
      </g>
     </g>
     <g id="text_2">
      <!-- All between Grupo_Experimental -->
      <defs>
       <path d="M 48.6875 27.296875 
Q 48.6875 37.203125 44.609375 42.84375 
Q 40.53125 48.484375 33.40625 48.484375 
Q 26.265625 48.484375 22.1875 42.84375 
Q 18.109375 37.203125 18.109375 27.296875 
Q 18.109375 17.390625 22.1875 11.75 
Q 26.265625 6.109375 33.40625 6.109375 
Q 40.53125 6.109375 44.609375 11.75 
Q 48.6875 17.390625 48.6875 27.296875 
z
M 18.109375 46.390625 
Q 20.953125 51.265625 25.265625 53.625 
Q 29.59375 56 35.59375 56 
Q 45.5625 56 51.78125 48.09375 
Q 58.015625 40.1875 58.015625 27.296875 
Q 58.015625 14.40625 51.78125 6.484375 
Q 45.5625 -1.421875 35.59375 -1.421875 
Q 29.59375 -1.421875 25.265625 0.953125 
Q 20.953125 3.328125 18.109375 8.203125 
L 18.109375 0 
L 9.078125 0 
L 9.078125 75.984375 
L 18.109375 75.984375 
z
" id="DejaVuSans-62"/>
      </defs>
      <g transform="translate(119.895313 407.036875)rotate(-90)scale(0.1 -0.1)">
       <use xlink:href="#DejaVuSans-41"/>
       <use x="68.408203" xlink:href="#DejaVuSans-6c"/>
       <use x="96.191406" xlink:href="#DejaVuSans-6c"/>
       <use x="123.974609" xlink:href="#DejaVuSans-20"/>
       <use x="155.761719" xlink:href="#DejaVuSans-62"/>
       <use x="219.238281" xlink:href="#DejaVuSans-65"/>
       <use x="280.761719" xlink:href="#DejaVuSans-74"/>
       <use x="319.970703" xlink:href="#DejaVuSans-77"/>
       <use x="401.757812" xlink:href="#DejaVuSans-65"/>
       <use x="463.28125" xlink:href="#DejaVuSans-65"/>
       <use x="524.804688" xlink:href="#DejaVuSans-6e"/>
       <use x="588.183594" xlink:href="#DejaVuSans-20"/>
       <use x="619.970703" xlink:href="#DejaVuSans-47"/>
       <use x="697.460938" xlink:href="#DejaVuSans-72"/>
       <use x="738.574219" xlink:href="#DejaVuSans-75"/>
       <use x="801.953125" xlink:href="#DejaVuSans-70"/>
       <use x="865.429688" xlink:href="#DejaVuSans-6f"/>
       <use x="926.611328" xlink:href="#DejaVuSans-5f"/>
       <use x="976.611328" xlink:href="#DejaVuSans-45"/>
       <use x="1039.794922" xlink:href="#DejaVuSans-78"/>
       <use x="1098.974609" xlink:href="#DejaVuSans-70"/>
       <use x="1162.451172" xlink:href="#DejaVuSans-65"/>
       <use x="1223.974609" xlink:href="#DejaVuSans-72"/>
       <use x="1265.087891" xlink:href="#DejaVuSans-69"/>
       <use x="1292.871094" xlink:href="#DejaVuSans-6d"/>
       <use x="1390.283203" xlink:href="#DejaVuSans-65"/>
       <use x="1451.806641" xlink:href="#DejaVuSans-6e"/>
       <use x="1515.185547" xlink:href="#DejaVuSans-74"/>
       <use x="1554.394531" xlink:href="#DejaVuSans-61"/>
       <use x="1615.673828" xlink:href="#DejaVuSans-6c"/>
      </g>
     </g>
    </g>
    <g id="xtick_3">
     <g id="line2d_3">
      <g>
       <use style="stroke:#000000;stroke-width:0.8;" x="163.645" xlink:href="#m0ff18983e1" y="235.69"/>
      </g>
     </g>
     <g id="text_3">
      <!-- DAG vs. DAG -->
      <defs>
       <path d="M 19.671875 64.796875 
L 19.671875 8.109375 
L 31.59375 8.109375 
Q 46.6875 8.109375 53.6875 14.9375 
Q 60.6875 21.78125 60.6875 36.53125 
Q 60.6875 51.171875 53.6875 57.984375 
Q 46.6875 64.796875 31.59375 64.796875 
z
M 9.8125 72.90625 
L 30.078125 72.90625 
Q 51.265625 72.90625 61.171875 64.09375 
Q 71.09375 55.28125 71.09375 36.53125 
Q 71.09375 17.671875 61.125 8.828125 
Q 51.171875 0 30.078125 0 
L 9.8125 0 
z
" id="DejaVuSans-44"/>
       <path d="M 2.984375 54.6875 
L 12.5 54.6875 
L 29.59375 8.796875 
L 46.6875 54.6875 
L 56.203125 54.6875 
L 35.6875 0 
L 23.484375 0 
z
" id="DejaVuSans-76"/>
       <path d="M 44.28125 53.078125 
L 44.28125 44.578125 
Q 40.484375 46.53125 36.375 47.5 
Q 32.28125 48.484375 27.875 48.484375 
Q 21.1875 48.484375 17.84375 46.4375 
Q 14.5 44.390625 14.5 40.28125 
Q 14.5 37.15625 16.890625 35.375 
Q 19.28125 33.59375 26.515625 31.984375 
L 29.59375 31.296875 
Q 39.15625 29.25 43.1875 25.515625 
Q 47.21875 21.78125 47.21875 15.09375 
Q 47.21875 7.46875 41.1875 3.015625 
Q 35.15625 -1.421875 24.609375 -1.421875 
Q 20.21875 -1.421875 15.453125 -0.5625 
Q 10.6875 0.296875 5.421875 2 
L 5.421875 11.28125 
Q 10.40625 8.6875 15.234375 7.390625 
Q 20.0625 6.109375 24.8125 6.109375 
Q 31.15625 6.109375 34.5625 8.28125 
Q 37.984375 10.453125 37.984375 14.40625 
Q 37.984375 18.0625 35.515625 20.015625 
Q 33.0625 21.96875 24.703125 23.78125 
L 21.578125 24.515625 
Q 13.234375 26.265625 9.515625 29.90625 
Q 5.8125 33.546875 5.8125 39.890625 
Q 5.8125 47.609375 11.28125 51.796875 
Q 16.75 56 26.8125 56 
Q 31.78125 56 36.171875 55.265625 
Q 40.578125 54.546875 44.28125 53.078125 
z
" id="DejaVuSans-73"/>
       <path d="M 10.6875 12.40625 
L 21 12.40625 
L 21 0 
L 10.6875 0 
z
" id="DejaVuSans-2e"/>
      </defs>
      <g transform="translate(166.404375 307.924375)rotate(-90)scale(0.1 -0.1)">
       <use xlink:href="#DejaVuSans-44"/>
       <use x="76.986328" xlink:href="#DejaVuSans-41"/>
       <use x="145.378906" xlink:href="#DejaVuSans-47"/>
       <use x="222.869141" xlink:href="#DejaVuSans-20"/>
       <use x="254.65625" xlink:href="#DejaVuSans-76"/>
       <use x="313.835938" xlink:href="#DejaVuSans-73"/>
       <use x="365.935547" xlink:href="#DejaVuSans-2e"/>
       <use x="397.722656" xlink:href="#DejaVuSans-20"/>
       <use x="429.509766" xlink:href="#DejaVuSans-44"/>
       <use x="506.496094" xlink:href="#DejaVuSans-41"/>
       <use x="574.888672" xlink:href="#DejaVuSans-47"/>
      </g>
     </g>
    </g>
    <g id="xtick_4">
     <g id="line2d_4">
      <g>
       <use style="stroke:#000000;stroke-width:0.8;" x="210.015" xlink:href="#m0ff18983e1" y="235.69"/>
      </g>
     </g>
     <g id="text_4">
      <!-- DAG_AE vs. DAG_AE -->
      <g transform="translate(212.547031 344.243125)rotate(-90)scale(0.1 -0.1)">
       <use xlink:href="#DejaVuSans-44"/>
       <use x="76.986328" xlink:href="#DejaVuSans-41"/>
       <use x="145.378906" xlink:href="#DejaVuSans-47"/>
       <use x="222.869141" xlink:href="#DejaVuSans-5f"/>
       <use x="272.869141" xlink:href="#DejaVuSans-41"/>
       <use x="341.277344" xlink:href="#DejaVuSans-45"/>
       <use x="404.460938" xlink:href="#DejaVuSans-20"/>
       <use x="436.248047" xlink:href="#DejaVuSans-76"/>
       <use x="495.427734" xlink:href="#DejaVuSans-73"/>
       <use x="547.527344" xlink:href="#DejaVuSans-2e"/>
       <use x="579.314453" xlink:href="#DejaVuSans-20"/>
       <use x="611.101562" xlink:href="#DejaVuSans-44"/>
       <use x="688.087891" xlink:href="#DejaVuSans-41"/>
       <use x="756.480469" xlink:href="#DejaVuSans-47"/>
       <use x="833.970703" xlink:href="#DejaVuSans-5f"/>
       <use x="883.970703" xlink:href="#DejaVuSans-41"/>
       <use x="952.378906" xlink:href="#DejaVuSans-45"/>
      </g>
     </g>
    </g>
    <g id="xtick_5">
     <g id="line2d_5">
      <g>
       <use style="stroke:#000000;stroke-width:0.8;" x="256.385" xlink:href="#m0ff18983e1" y="235.69"/>
      </g>
     </g>
     <g id="text_5">
      <!-- DAG_AN vs. DAG_AN -->
      <defs>
       <path d="M 9.8125 72.90625 
L 23.09375 72.90625 
L 55.421875 11.921875 
L 55.421875 72.90625 
L 64.984375 72.90625 
L 64.984375 0 
L 51.703125 0 
L 19.390625 60.984375 
L 19.390625 0 
L 9.8125 0 
z
" id="DejaVuSans-4e"/>
      </defs>
      <g transform="translate(258.917031 346.568125)rotate(-90)scale(0.1 -0.1)">
       <use xlink:href="#DejaVuSans-44"/>
       <use x="76.986328" xlink:href="#DejaVuSans-41"/>
       <use x="145.378906" xlink:href="#DejaVuSans-47"/>
       <use x="222.869141" xlink:href="#DejaVuSans-5f"/>
       <use x="272.869141" xlink:href="#DejaVuSans-41"/>
       <use x="341.277344" xlink:href="#DejaVuSans-4e"/>
       <use x="416.082031" xlink:href="#DejaVuSans-20"/>
       <use x="447.869141" xlink:href="#DejaVuSans-76"/>
       <use x="507.048828" xlink:href="#DejaVuSans-73"/>
       <use x="559.148438" xlink:href="#DejaVuSans-2e"/>
       <use x="590.935547" xlink:href="#DejaVuSans-20"/>
       <use x="622.722656" xlink:href="#DejaVuSans-44"/>
       <use x="699.708984" xlink:href="#DejaVuSans-41"/>
       <use x="768.101562" xlink:href="#DejaVuSans-47"/>
       <use x="845.591797" xlink:href="#DejaVuSans-5f"/>
       <use x="895.591797" xlink:href="#DejaVuSans-41"/>
       <use x="964" xlink:href="#DejaVuSans-4e"/>
      </g>
     </g>
    </g>
    <g id="xtick_6">
     <g id="line2d_6">
      <g>
       <use style="stroke:#000000;stroke-width:0.8;" x="302.755" xlink:href="#m0ff18983e1" y="235.69"/>
      </g>
     </g>
     <g id="text_6">
      <!-- DAG vs. DAG_AE -->
      <g transform="translate(305.287031 326.08375)rotate(-90)scale(0.1 -0.1)">
       <use xlink:href="#DejaVuSans-44"/>
       <use x="76.986328" xlink:href="#DejaVuSans-41"/>
       <use x="145.378906" xlink:href="#DejaVuSans-47"/>
       <use x="222.869141" xlink:href="#DejaVuSans-20"/>
       <use x="254.65625" xlink:href="#DejaVuSans-76"/>
       <use x="313.835938" xlink:href="#DejaVuSans-73"/>
       <use x="365.935547" xlink:href="#DejaVuSans-2e"/>
       <use x="397.722656" xlink:href="#DejaVuSans-20"/>
       <use x="429.509766" xlink:href="#DejaVuSans-44"/>
       <use x="506.496094" xlink:href="#DejaVuSans-41"/>
       <use x="574.888672" xlink:href="#DejaVuSans-47"/>
       <use x="652.378906" xlink:href="#DejaVuSans-5f"/>
       <use x="702.378906" xlink:href="#DejaVuSans-41"/>
       <use x="770.787109" xlink:href="#DejaVuSans-45"/>
      </g>
     </g>
    </g>
    <g id="xtick_7">
     <g id="line2d_7">
      <g>
       <use style="stroke:#000000;stroke-width:0.8;" x="349.125" xlink:href="#m0ff18983e1" y="235.69"/>
      </g>
     </g>
     <g id="text_7">
      <!-- DAG vs. DAG_AN -->
      <g transform="translate(351.657031 327.24625)rotate(-90)scale(0.1 -0.1)">
       <use xlink:href="#DejaVuSans-44"/>
       <use x="76.986328" xlink:href="#DejaVuSans-41"/>
       <use x="145.378906" xlink:href="#DejaVuSans-47"/>
       <use x="222.869141" xlink:href="#DejaVuSans-20"/>
       <use x="254.65625" xlink:href="#DejaVuSans-76"/>
       <use x="313.835938" xlink:href="#DejaVuSans-73"/>
       <use x="365.935547" xlink:href="#DejaVuSans-2e"/>
       <use x="397.722656" xlink:href="#DejaVuSans-20"/>
       <use x="429.509766" xlink:href="#DejaVuSans-44"/>
       <use x="506.496094" xlink:href="#DejaVuSans-41"/>
       <use x="574.888672" xlink:href="#DejaVuSans-47"/>
       <use x="652.378906" xlink:href="#DejaVuSans-5f"/>
       <use x="702.378906" xlink:href="#DejaVuSans-41"/>
       <use x="770.787109" xlink:href="#DejaVuSans-4e"/>
      </g>
     </g>
    </g>
    <g id="xtick_8">
     <g id="line2d_8">
      <g>
       <use style="stroke:#000000;stroke-width:0.8;" x="395.495" xlink:href="#m0ff18983e1" y="235.69"/>
      </g>
     </g>
     <g id="text_8">
      <!-- DAG_AE vs. DAG_AN -->
      <g transform="translate(398.027031 345.405625)rotate(-90)scale(0.1 -0.1)">
       <use xlink:href="#DejaVuSans-44"/>
       <use x="76.986328" xlink:href="#DejaVuSans-41"/>
       <use x="145.378906" xlink:href="#DejaVuSans-47"/>
       <use x="222.869141" xlink:href="#DejaVuSans-5f"/>
       <use x="272.869141" xlink:href="#DejaVuSans-41"/>
       <use x="341.277344" xlink:href="#DejaVuSans-45"/>
       <use x="404.460938" xlink:href="#DejaVuSans-20"/>
       <use x="436.248047" xlink:href="#DejaVuSans-76"/>
       <use x="495.427734" xlink:href="#DejaVuSans-73"/>
       <use x="547.527344" xlink:href="#DejaVuSans-2e"/>
       <use x="579.314453" xlink:href="#DejaVuSans-20"/>
       <use x="611.101562" xlink:href="#DejaVuSans-44"/>
       <use x="688.087891" xlink:href="#DejaVuSans-41"/>
       <use x="756.480469" xlink:href="#DejaVuSans-47"/>
       <use x="833.970703" xlink:href="#DejaVuSans-5f"/>
       <use x="883.970703" xlink:href="#DejaVuSans-41"/>
       <use x="952.378906" xlink:href="#DejaVuSans-4e"/>
      </g>
     </g>
    </g>
    <g id="text_9">
     <!-- Grouping -->
     <defs>
      <path d="M 45.40625 27.984375 
Q 45.40625 37.75 41.375 43.109375 
Q 37.359375 48.484375 30.078125 48.484375 
Q 22.859375 48.484375 18.828125 43.109375 
Q 14.796875 37.75 14.796875 27.984375 
Q 14.796875 18.265625 18.828125 12.890625 
Q 22.859375 7.515625 30.078125 7.515625 
Q 37.359375 7.515625 41.375 12.890625 
Q 45.40625 18.265625 45.40625 27.984375 
z
M 54.390625 6.78125 
Q 54.390625 -7.171875 48.1875 -13.984375 
Q 42 -20.796875 29.203125 -20.796875 
Q 24.46875 -20.796875 20.265625 -20.09375 
Q 16.0625 -19.390625 12.109375 -17.921875 
L 12.109375 -9.1875 
Q 16.0625 -11.328125 19.921875 -12.34375 
Q 23.78125 -13.375 27.78125 -13.375 
Q 36.625 -13.375 41.015625 -8.765625 
Q 45.40625 -4.15625 45.40625 5.171875 
L 45.40625 9.625 
Q 42.625 4.78125 38.28125 2.390625 
Q 33.9375 0 27.875 0 
Q 17.828125 0 11.671875 7.65625 
Q 5.515625 15.328125 5.515625 27.984375 
Q 5.515625 40.671875 11.671875 48.328125 
Q 17.828125 56 27.875 56 
Q 33.9375 56 38.28125 53.609375 
Q 42.625 51.21875 45.40625 46.390625 
L 45.40625 54.6875 
L 54.390625 54.6875 
z
" id="DejaVuSans-67"/>
     </defs>
     <g transform="translate(210.1375 418.635312)scale(0.1 -0.1)">
      <use xlink:href="#DejaVuSans-47"/>
      <use x="77.490234" xlink:href="#DejaVuSans-72"/>
      <use x="118.572266" xlink:href="#DejaVuSans-6f"/>
      <use x="179.753906" xlink:href="#DejaVuSans-75"/>
      <use x="243.132812" xlink:href="#DejaVuSans-70"/>
      <use x="306.609375" xlink:href="#DejaVuSans-69"/>
      <use x="334.392578" xlink:href="#DejaVuSans-6e"/>
      <use x="397.771484" xlink:href="#DejaVuSans-67"/>
     </g>
    </g>
   </g>
   <g id="matplotlib.axis_2">
    <g id="ytick_1">
     <g id="line2d_9">
      <defs>
       <path d="M 0 0 
L -3.5 0 
" id="me271f8c3cf" style="stroke:#000000;stroke-width:0.8;"/>
      </defs>
      <g>
       <use style="stroke:#000000;stroke-width:0.8;" x="47.72" xlink:href="#me271f8c3cf" y="235.69"/>
      </g>
     </g>
     <g id="text_10">
      <!-- 0.0 -->
      <defs>
       <path d="M 31.78125 66.40625 
Q 24.171875 66.40625 20.328125 58.90625 
Q 16.5 51.421875 16.5 36.375 
Q 16.5 21.390625 20.328125 13.890625 
Q 24.171875 6.390625 31.78125 6.390625 
Q 39.453125 6.390625 43.28125 13.890625 
Q 47.125 21.390625 47.125 36.375 
Q 47.125 51.421875 43.28125 58.90625 
Q 39.453125 66.40625 31.78125 66.40625 
z
M 31.78125 74.21875 
Q 44.046875 74.21875 50.515625 64.515625 
Q 56.984375 54.828125 56.984375 36.375 
Q 56.984375 17.96875 50.515625 8.265625 
Q 44.046875 -1.421875 31.78125 -1.421875 
Q 19.53125 -1.421875 13.0625 8.265625 
Q 6.59375 17.96875 6.59375 36.375 
Q 6.59375 54.828125 13.0625 64.515625 
Q 19.53125 74.21875 31.78125 74.21875 
z
" id="DejaVuSans-30"/>
      </defs>
      <g transform="translate(24.816875 239.489219)scale(0.1 -0.1)">
       <use xlink:href="#DejaVuSans-30"/>
       <use x="63.623047" xlink:href="#DejaVuSans-2e"/>
       <use x="95.410156" xlink:href="#DejaVuSans-30"/>
      </g>
     </g>
    </g>
    <g id="ytick_2">
     <g id="line2d_10">
      <g>
       <use style="stroke:#000000;stroke-width:0.8;" x="47.72" xlink:href="#me271f8c3cf" y="193.928"/>
      </g>
     </g>
     <g id="text_11">
      <!-- 0.2 -->
      <defs>
       <path d="M 19.1875 8.296875 
L 53.609375 8.296875 
L 53.609375 0 
L 7.328125 0 
L 7.328125 8.296875 
Q 12.9375 14.109375 22.625 23.890625 
Q 32.328125 33.6875 34.8125 36.53125 
Q 39.546875 41.84375 41.421875 45.53125 
Q 43.3125 49.21875 43.3125 52.78125 
Q 43.3125 58.59375 39.234375 62.25 
Q 35.15625 65.921875 28.609375 65.921875 
Q 23.96875 65.921875 18.8125 64.3125 
Q 13.671875 62.703125 7.8125 59.421875 
L 7.8125 69.390625 
Q 13.765625 71.78125 18.9375 73 
Q 24.125 74.21875 28.421875 74.21875 
Q 39.75 74.21875 46.484375 68.546875 
Q 53.21875 62.890625 53.21875 53.421875 
Q 53.21875 48.921875 51.53125 44.890625 
Q 49.859375 40.875 45.40625 35.40625 
Q 44.1875 33.984375 37.640625 27.21875 
Q 31.109375 20.453125 19.1875 8.296875 
z
" id="DejaVuSans-32"/>
      </defs>
      <g transform="translate(24.816875 197.727219)scale(0.1 -0.1)">
       <use xlink:href="#DejaVuSans-30"/>
       <use x="63.623047" xlink:href="#DejaVuSans-2e"/>
       <use x="95.410156" xlink:href="#DejaVuSans-32"/>
      </g>
     </g>
    </g>
    <g id="ytick_3">
     <g id="line2d_11">
      <g>
       <use style="stroke:#000000;stroke-width:0.8;" x="47.72" xlink:href="#me271f8c3cf" y="152.166"/>
      </g>
     </g>
     <g id="text_12">
      <!-- 0.4 -->
      <defs>
       <path d="M 37.796875 64.3125 
L 12.890625 25.390625 
L 37.796875 25.390625 
z
M 35.203125 72.90625 
L 47.609375 72.90625 
L 47.609375 25.390625 
L 58.015625 25.390625 
L 58.015625 17.1875 
L 47.609375 17.1875 
L 47.609375 0 
L 37.796875 0 
L 37.796875 17.1875 
L 4.890625 17.1875 
L 4.890625 26.703125 
z
" id="DejaVuSans-34"/>
      </defs>
      <g transform="translate(24.816875 155.965219)scale(0.1 -0.1)">
       <use xlink:href="#DejaVuSans-30"/>
       <use x="63.623047" xlink:href="#DejaVuSans-2e"/>
       <use x="95.410156" xlink:href="#DejaVuSans-34"/>
      </g>
     </g>
    </g>
    <g id="ytick_4">
     <g id="line2d_12">
      <g>
       <use style="stroke:#000000;stroke-width:0.8;" x="47.72" xlink:href="#me271f8c3cf" y="110.404"/>
      </g>
     </g>
     <g id="text_13">
      <!-- 0.6 -->
      <defs>
       <path d="M 33.015625 40.375 
Q 26.375 40.375 22.484375 35.828125 
Q 18.609375 31.296875 18.609375 23.390625 
Q 18.609375 15.53125 22.484375 10.953125 
Q 26.375 6.390625 33.015625 6.390625 
Q 39.65625 6.390625 43.53125 10.953125 
Q 47.40625 15.53125 47.40625 23.390625 
Q 47.40625 31.296875 43.53125 35.828125 
Q 39.65625 40.375 33.015625 40.375 
z
M 52.59375 71.296875 
L 52.59375 62.3125 
Q 48.875 64.0625 45.09375 64.984375 
Q 41.3125 65.921875 37.59375 65.921875 
Q 27.828125 65.921875 22.671875 59.328125 
Q 17.53125 52.734375 16.796875 39.40625 
Q 19.671875 43.65625 24.015625 45.921875 
Q 28.375 48.1875 33.59375 48.1875 
Q 44.578125 48.1875 50.953125 41.515625 
Q 57.328125 34.859375 57.328125 23.390625 
Q 57.328125 12.15625 50.6875 5.359375 
Q 44.046875 -1.421875 33.015625 -1.421875 
Q 20.359375 -1.421875 13.671875 8.265625 
Q 6.984375 17.96875 6.984375 36.375 
Q 6.984375 53.65625 15.1875 63.9375 
Q 23.390625 74.21875 37.203125 74.21875 
Q 40.921875 74.21875 44.703125 73.484375 
Q 48.484375 72.75 52.59375 71.296875 
z
" id="DejaVuSans-36"/>
      </defs>
      <g transform="translate(24.816875 114.203219)scale(0.1 -0.1)">
       <use xlink:href="#DejaVuSans-30"/>
       <use x="63.623047" xlink:href="#DejaVuSans-2e"/>
       <use x="95.410156" xlink:href="#DejaVuSans-36"/>
      </g>
     </g>
    </g>
    <g id="ytick_5">
     <g id="line2d_13">
      <g>
       <use style="stroke:#000000;stroke-width:0.8;" x="47.72" xlink:href="#me271f8c3cf" y="68.642"/>
      </g>
     </g>
     <g id="text_14">
      <!-- 0.8 -->
      <defs>
       <path d="M 31.78125 34.625 
Q 24.75 34.625 20.71875 30.859375 
Q 16.703125 27.09375 16.703125 20.515625 
Q 16.703125 13.921875 20.71875 10.15625 
Q 24.75 6.390625 31.78125 6.390625 
Q 38.8125 6.390625 42.859375 10.171875 
Q 46.921875 13.96875 46.921875 20.515625 
Q 46.921875 27.09375 42.890625 30.859375 
Q 38.875 34.625 31.78125 34.625 
z
M 21.921875 38.8125 
Q 15.578125 40.375 12.03125 44.71875 
Q 8.5 49.078125 8.5 55.328125 
Q 8.5 64.0625 14.71875 69.140625 
Q 20.953125 74.21875 31.78125 74.21875 
Q 42.671875 74.21875 48.875 69.140625 
Q 55.078125 64.0625 55.078125 55.328125 
Q 55.078125 49.078125 51.53125 44.71875 
Q 48 40.375 41.703125 38.8125 
Q 48.828125 37.15625 52.796875 32.3125 
Q 56.78125 27.484375 56.78125 20.515625 
Q 56.78125 9.90625 50.3125 4.234375 
Q 43.84375 -1.421875 31.78125 -1.421875 
Q 19.734375 -1.421875 13.25 4.234375 
Q 6.78125 9.90625 6.78125 20.515625 
Q 6.78125 27.484375 10.78125 32.3125 
Q 14.796875 37.15625 21.921875 38.8125 
z
M 18.3125 54.390625 
Q 18.3125 48.734375 21.84375 45.5625 
Q 25.390625 42.390625 31.78125 42.390625 
Q 38.140625 42.390625 41.71875 45.5625 
Q 45.3125 48.734375 45.3125 54.390625 
Q 45.3125 60.0625 41.71875 63.234375 
Q 38.140625 66.40625 31.78125 66.40625 
Q 25.390625 66.40625 21.84375 63.234375 
Q 18.3125 60.0625 18.3125 54.390625 
z
" id="DejaVuSans-38"/>
      </defs>
      <g transform="translate(24.816875 72.441219)scale(0.1 -0.1)">
       <use xlink:href="#DejaVuSans-30"/>
       <use x="63.623047" xlink:href="#DejaVuSans-2e"/>
       <use x="95.410156" xlink:href="#DejaVuSans-38"/>
      </g>
     </g>
    </g>
    <g id="ytick_6">
     <g id="line2d_14">
      <g>
       <use style="stroke:#000000;stroke-width:0.8;" x="47.72" xlink:href="#me271f8c3cf" y="26.88"/>
      </g>
     </g>
     <g id="text_15">
      <!-- 1.0 -->
      <defs>
       <path d="M 12.40625 8.296875 
L 28.515625 8.296875 
L 28.515625 63.921875 
L 10.984375 60.40625 
L 10.984375 69.390625 
L 28.421875 72.90625 
L 38.28125 72.90625 
L 38.28125 8.296875 
L 54.390625 8.296875 
L 54.390625 0 
L 12.40625 0 
z
" id="DejaVuSans-31"/>
      </defs>
      <g transform="translate(24.816875 30.679219)scale(0.1 -0.1)">
       <use xlink:href="#DejaVuSans-31"/>
       <use x="63.623047" xlink:href="#DejaVuSans-2e"/>
       <use x="95.410156" xlink:href="#DejaVuSans-30"/>
      </g>
     </g>
    </g>
    <g id="text_16">
     <!-- Distance -->
     <defs>
      <path d="M 48.78125 52.59375 
L 48.78125 44.1875 
Q 44.96875 46.296875 41.140625 47.34375 
Q 37.3125 48.390625 33.40625 48.390625 
Q 24.65625 48.390625 19.8125 42.84375 
Q 14.984375 37.3125 14.984375 27.296875 
Q 14.984375 17.28125 19.8125 11.734375 
Q 24.65625 6.203125 33.40625 6.203125 
Q 37.3125 6.203125 41.140625 7.25 
Q 44.96875 8.296875 48.78125 10.40625 
L 48.78125 2.09375 
Q 45.015625 0.34375 40.984375 -0.53125 
Q 36.96875 -1.421875 32.421875 -1.421875 
Q 20.0625 -1.421875 12.78125 6.34375 
Q 5.515625 14.109375 5.515625 27.296875 
Q 5.515625 40.671875 12.859375 48.328125 
Q 20.21875 56 33.015625 56 
Q 37.15625 56 41.109375 55.140625 
Q 45.0625 54.296875 48.78125 52.59375 
z
" id="DejaVuSans-63"/>
     </defs>
     <g transform="translate(18.737188 153.1475)rotate(-90)scale(0.1 -0.1)">
      <use xlink:href="#DejaVuSans-44"/>
      <use x="77.001953" xlink:href="#DejaVuSans-69"/>
      <use x="104.785156" xlink:href="#DejaVuSans-73"/>
      <use x="156.884766" xlink:href="#DejaVuSans-74"/>
      <use x="196.09375" xlink:href="#DejaVuSans-61"/>
      <use x="257.373047" xlink:href="#DejaVuSans-6e"/>
      <use x="320.751953" xlink:href="#DejaVuSans-63"/>
      <use x="375.732422" xlink:href="#DejaVuSans-65"/>
     </g>
    </g>
   </g>
   <g id="line2d_15">
    <path clip-path="url(#pa928ae8a61)" d="M 59.3125 201.954052 
L 82.4975 201.954052 
L 82.4975 195.379161 
L 59.3125 195.379161 
L 59.3125 201.954052 
" style="fill:none;stroke:#000000;stroke-linecap:square;"/>
   </g>
   <g id="line2d_16">
    <path clip-path="url(#pa928ae8a61)" d="M 70.905 201.954052 
L 70.905 208.582066 
" style="fill:none;stroke:#000000;stroke-linecap:square;"/>
   </g>
   <g id="line2d_17">
    <path clip-path="url(#pa928ae8a61)" d="M 70.905 195.379161 
L 70.905 186.296943 
" style="fill:none;stroke:#000000;stroke-linecap:square;"/>
   </g>
   <g id="line2d_18">
    <path clip-path="url(#pa928ae8a61)" d="M 65.10875 208.582066 
L 76.70125 208.582066 
" style="fill:none;stroke:#000000;stroke-linecap:square;"/>
   </g>
   <g id="line2d_19">
    <path clip-path="url(#pa928ae8a61)" d="M 65.10875 186.296943 
L 76.70125 186.296943 
" style="fill:none;stroke:#000000;stroke-linecap:square;"/>
   </g>
   <g id="line2d_20"/>
   <g id="line2d_21">
    <path clip-path="url(#pa928ae8a61)" d="M 105.6825 197.589696 
L 128.8675 197.589696 
L 128.8675 191.447371 
L 105.6825 191.447371 
L 105.6825 197.589696 
" style="fill:none;stroke:#000000;stroke-linecap:square;"/>
   </g>
   <g id="line2d_22">
    <path clip-path="url(#pa928ae8a61)" d="M 117.275 197.589696 
L 117.275 203.476566 
" style="fill:none;stroke:#000000;stroke-linecap:square;"/>
   </g>
   <g id="line2d_23">
    <path clip-path="url(#pa928ae8a61)" d="M 117.275 191.447371 
L 117.275 183.425868 
" style="fill:none;stroke:#000000;stroke-linecap:square;"/>
   </g>
   <g id="line2d_24">
    <path clip-path="url(#pa928ae8a61)" d="M 111.47875 203.476566 
L 123.07125 203.476566 
" style="fill:none;stroke:#000000;stroke-linecap:square;"/>
   </g>
   <g id="line2d_25">
    <path clip-path="url(#pa928ae8a61)" d="M 111.47875 183.425868 
L 123.07125 183.425868 
" style="fill:none;stroke:#000000;stroke-linecap:square;"/>
   </g>
   <g id="line2d_26">
    <defs>
     <path d="M 0 3 
C 0.795609 3 1.55874 2.683901 2.12132 2.12132 
C 2.683901 1.55874 3 0.795609 3 0 
C 3 -0.795609 2.683901 -1.55874 2.12132 -2.12132 
C 1.55874 -2.683901 0.795609 -3 0 -3 
C -0.795609 -3 -1.55874 -2.683901 -2.12132 -2.12132 
C -2.683901 -1.55874 -3 -0.795609 -3 0 
C -3 0.795609 -2.683901 1.55874 -2.12132 2.12132 
C -1.55874 2.683901 -0.795609 3 0 3 
z
" id="me1df9c1bf0" style="stroke:#000000;"/>
    </defs>
    <g clip-path="url(#pa928ae8a61)">
     <use style="fill-opacity:0;stroke:#000000;" x="117.275" xlink:href="#me1df9c1bf0" y="209.384599"/>
    </g>
   </g>
   <g id="line2d_27">
    <path clip-path="url(#pa928ae8a61)" d="M 152.0525 200.289353 
L 175.2375 200.289353 
L 175.2375 193.579083 
L 152.0525 193.579083 
L 152.0525 200.289353 
" style="fill:none;stroke:#000000;stroke-linecap:square;"/>
   </g>
   <g id="line2d_28">
    <path clip-path="url(#pa928ae8a61)" d="M 163.645 200.289353 
L 163.645 206.847077 
" style="fill:none;stroke:#000000;stroke-linecap:square;"/>
   </g>
   <g id="line2d_29">
    <path clip-path="url(#pa928ae8a61)" d="M 163.645 193.579083 
L 163.645 186.296943 
" style="fill:none;stroke:#000000;stroke-linecap:square;"/>
   </g>
   <g id="line2d_30">
    <path clip-path="url(#pa928ae8a61)" d="M 157.84875 206.847077 
L 169.44125 206.847077 
" style="fill:none;stroke:#000000;stroke-linecap:square;"/>
   </g>
   <g id="line2d_31">
    <path clip-path="url(#pa928ae8a61)" d="M 157.84875 186.296943 
L 169.44125 186.296943 
" style="fill:none;stroke:#000000;stroke-linecap:square;"/>
   </g>
   <g id="line2d_32"/>
   <g id="line2d_33">
    <path clip-path="url(#pa928ae8a61)" d="M 198.4225 199.175053 
L 221.6075 199.175053 
L 221.6075 193.994851 
L 198.4225 193.994851 
L 198.4225 199.175053 
" style="fill:none;stroke:#000000;stroke-linecap:square;"/>
   </g>
   <g id="line2d_34">
    <path clip-path="url(#pa928ae8a61)" d="M 210.015 199.175053 
L 210.015 199.974784 
" style="fill:none;stroke:#000000;stroke-linecap:square;"/>
   </g>
   <g id="line2d_35">
    <path clip-path="url(#pa928ae8a61)" d="M 210.015 193.994851 
L 210.015 190.382585 
" style="fill:none;stroke:#000000;stroke-linecap:square;"/>
   </g>
   <g id="line2d_36">
    <path clip-path="url(#pa928ae8a61)" d="M 204.21875 199.974784 
L 215.81125 199.974784 
" style="fill:none;stroke:#000000;stroke-linecap:square;"/>
   </g>
   <g id="line2d_37">
    <path clip-path="url(#pa928ae8a61)" d="M 204.21875 190.382585 
L 215.81125 190.382585 
" style="fill:none;stroke:#000000;stroke-linecap:square;"/>
   </g>
   <g id="line2d_38"/>
   <g id="line2d_39">
    <path clip-path="url(#pa928ae8a61)" d="M 244.7925 205.965122 
L 267.9775 205.965122 
L 267.9775 200.073234 
L 244.7925 200.073234 
L 244.7925 205.965122 
" style="fill:none;stroke:#000000;stroke-linecap:square;"/>
   </g>
   <g id="line2d_40">
    <path clip-path="url(#pa928ae8a61)" d="M 256.385 205.965122 
L 256.385 208.582066 
" style="fill:none;stroke:#000000;stroke-linecap:square;"/>
   </g>
   <g id="line2d_41">
    <path clip-path="url(#pa928ae8a61)" d="M 256.385 200.073234 
L 256.385 193.514183 
" style="fill:none;stroke:#000000;stroke-linecap:square;"/>
   </g>
   <g id="line2d_42">
    <path clip-path="url(#pa928ae8a61)" d="M 250.58875 208.582066 
L 262.18125 208.582066 
" style="fill:none;stroke:#000000;stroke-linecap:square;"/>
   </g>
   <g id="line2d_43">
    <path clip-path="url(#pa928ae8a61)" d="M 250.58875 193.514183 
L 262.18125 193.514183 
" style="fill:none;stroke:#000000;stroke-linecap:square;"/>
   </g>
   <g id="line2d_44"/>
   <g id="line2d_45">
    <path clip-path="url(#pa928ae8a61)" d="M 291.1625 197.315143 
L 314.3475 197.315143 
L 314.3475 191.898523 
L 291.1625 191.898523 
L 291.1625 197.315143 
" style="fill:none;stroke:#000000;stroke-linecap:square;"/>
   </g>
   <g id="line2d_46">
    <path clip-path="url(#pa928ae8a61)" d="M 302.755 197.315143 
L 302.755 203.476566 
" style="fill:none;stroke:#000000;stroke-linecap:square;"/>
   </g>
   <g id="line2d_47">
    <path clip-path="url(#pa928ae8a61)" d="M 302.755 191.898523 
L 302.755 184.213419 
" style="fill:none;stroke:#000000;stroke-linecap:square;"/>
   </g>
   <g id="line2d_48">
    <path clip-path="url(#pa928ae8a61)" d="M 296.95875 203.476566 
L 308.55125 203.476566 
" style="fill:none;stroke:#000000;stroke-linecap:square;"/>
   </g>
   <g id="line2d_49">
    <path clip-path="url(#pa928ae8a61)" d="M 296.95875 184.213419 
L 308.55125 184.213419 
" style="fill:none;stroke:#000000;stroke-linecap:square;"/>
   </g>
   <g id="line2d_50"/>
   <g id="line2d_51">
    <path clip-path="url(#pa928ae8a61)" d="M 337.5325 198.722559 
L 360.7175 198.722559 
L 360.7175 191.322821 
L 337.5325 191.322821 
L 337.5325 198.722559 
" style="fill:none;stroke:#000000;stroke-linecap:square;"/>
   </g>
   <g id="line2d_52">
    <path clip-path="url(#pa928ae8a61)" d="M 349.125 198.722559 
L 349.125 209.384599 
" style="fill:none;stroke:#000000;stroke-linecap:square;"/>
   </g>
   <g id="line2d_53">
    <path clip-path="url(#pa928ae8a61)" d="M 349.125 191.322821 
L 349.125 183.425868 
" style="fill:none;stroke:#000000;stroke-linecap:square;"/>
   </g>
   <g id="line2d_54">
    <path clip-path="url(#pa928ae8a61)" d="M 343.32875 209.384599 
L 354.92125 209.384599 
" style="fill:none;stroke:#000000;stroke-linecap:square;"/>
   </g>
   <g id="line2d_55">
    <path clip-path="url(#pa928ae8a61)" d="M 343.32875 183.425868 
L 354.92125 183.425868 
" style="fill:none;stroke:#000000;stroke-linecap:square;"/>
   </g>
   <g id="line2d_56"/>
   <g id="line2d_57">
    <path clip-path="url(#pa928ae8a61)" d="M 383.9025 197.211035 
L 407.0875 197.211035 
L 407.0875 190.525846 
L 383.9025 190.525846 
L 383.9025 197.211035 
" style="fill:none;stroke:#000000;stroke-linecap:square;"/>
   </g>
   <g id="line2d_58">
    <path clip-path="url(#pa928ae8a61)" d="M 395.495 197.211035 
L 395.495 202.059602 
" style="fill:none;stroke:#000000;stroke-linecap:square;"/>
   </g>
   <g id="line2d_59">
    <path clip-path="url(#pa928ae8a61)" d="M 395.495 190.525846 
L 395.495 184.210062 
" style="fill:none;stroke:#000000;stroke-linecap:square;"/>
   </g>
   <g id="line2d_60">
    <path clip-path="url(#pa928ae8a61)" d="M 389.69875 202.059602 
L 401.29125 202.059602 
" style="fill:none;stroke:#000000;stroke-linecap:square;"/>
   </g>
   <g id="line2d_61">
    <path clip-path="url(#pa928ae8a61)" d="M 389.69875 184.210062 
L 401.29125 184.210062 
" style="fill:none;stroke:#000000;stroke-linecap:square;"/>
   </g>
   <g id="line2d_62"/>
   <g id="line2d_63">
    <path clip-path="url(#pa928ae8a61)" d="M 59.3125 198.987305 
L 82.4975 198.987305 
" style="fill:none;stroke:#ff7f0e;stroke-linecap:square;"/>
   </g>
   <g id="line2d_64">
    <path clip-path="url(#pa928ae8a61)" d="M 105.6825 194.347946 
L 128.8675 194.347946 
" style="fill:none;stroke:#ff7f0e;stroke-linecap:square;"/>
   </g>
   <g id="line2d_65">
    <path clip-path="url(#pa928ae8a61)" d="M 152.0525 196.537795 
L 175.2375 196.537795 
" style="fill:none;stroke:#ff7f0e;stroke-linecap:square;"/>
   </g>
   <g id="line2d_66">
    <path clip-path="url(#pa928ae8a61)" d="M 198.4225 198.685005 
L 221.6075 198.685005 
" style="fill:none;stroke:#ff7f0e;stroke-linecap:square;"/>
   </g>
   <g id="line2d_67">
    <path clip-path="url(#pa928ae8a61)" d="M 244.7925 202.368889 
L 267.9775 202.368889 
" style="fill:none;stroke:#ff7f0e;stroke-linecap:square;"/>
   </g>
   <g id="line2d_68">
    <path clip-path="url(#pa928ae8a61)" d="M 291.1625 194.472509 
L 314.3475 194.472509 
" style="fill:none;stroke:#ff7f0e;stroke-linecap:square;"/>
   </g>
   <g id="line2d_69">
    <path clip-path="url(#pa928ae8a61)" d="M 337.5325 194.361708 
L 360.7175 194.361708 
" style="fill:none;stroke:#ff7f0e;stroke-linecap:square;"/>
   </g>
   <g id="line2d_70">
    <path clip-path="url(#pa928ae8a61)" d="M 383.9025 194.161981 
L 407.0875 194.161981 
" style="fill:none;stroke:#ff7f0e;stroke-linecap:square;"/>
   </g>
   <g id="patch_3">
    <path d="M 47.72 235.69 
L 47.72 26.88 
" style="fill:none;stroke:#000000;stroke-linecap:square;stroke-linejoin:miter;stroke-width:0.8;"/>
   </g>
   <g id="patch_4">
    <path d="M 418.68 235.69 
L 418.68 26.88 
" style="fill:none;stroke:#000000;stroke-linecap:square;stroke-linejoin:miter;stroke-width:0.8;"/>
   </g>
   <g id="patch_5">
    <path d="M 47.72 235.69 
L 418.68 235.69 
" style="fill:none;stroke:#000000;stroke-linecap:square;stroke-linejoin:miter;stroke-width:0.8;"/>
   </g>
   <g id="patch_6">
    <path d="M 47.72 26.88 
L 418.68 26.88 
" style="fill:none;stroke:#000000;stroke-linecap:square;stroke-linejoin:miter;stroke-width:0.8;"/>
   </g>
   <g id="text_17">
    <!-- Grupo_Experimental Distances -->
    <g transform="translate(140.5225 20.88)scale(0.12 -0.12)">
     <use xlink:href="#DejaVuSans-47"/>
     <use x="77.490234" xlink:href="#DejaVuSans-72"/>
     <use x="118.603516" xlink:href="#DejaVuSans-75"/>
     <use x="181.982422" xlink:href="#DejaVuSans-70"/>
     <use x="245.458984" xlink:href="#DejaVuSans-6f"/>
     <use x="306.640625" xlink:href="#DejaVuSans-5f"/>
     <use x="356.640625" xlink:href="#DejaVuSans-45"/>
     <use x="419.824219" xlink:href="#DejaVuSans-78"/>
     <use x="479.003906" xlink:href="#DejaVuSans-70"/>
     <use x="542.480469" xlink:href="#DejaVuSans-65"/>
     <use x="604.003906" xlink:href="#DejaVuSans-72"/>
     <use x="645.117188" xlink:href="#DejaVuSans-69"/>
     <use x="672.900391" xlink:href="#DejaVuSans-6d"/>
     <use x="770.3125" xlink:href="#DejaVuSans-65"/>
     <use x="831.835938" xlink:href="#DejaVuSans-6e"/>
     <use x="895.214844" xlink:href="#DejaVuSans-74"/>
     <use x="934.423828" xlink:href="#DejaVuSans-61"/>
     <use x="995.703125" xlink:href="#DejaVuSans-6c"/>
     <use x="1023.486328" xlink:href="#DejaVuSans-20"/>
     <use x="1055.273438" xlink:href="#DejaVuSans-44"/>
     <use x="1132.275391" xlink:href="#DejaVuSans-69"/>
     <use x="1160.058594" xlink:href="#DejaVuSans-73"/>
     <use x="1212.158203" xlink:href="#DejaVuSans-74"/>
     <use x="1251.367188" xlink:href="#DejaVuSans-61"/>
     <use x="1312.646484" xlink:href="#DejaVuSans-6e"/>
     <use x="1376.025391" xlink:href="#DejaVuSans-63"/>
     <use x="1431.005859" xlink:href="#DejaVuSans-65"/>
     <use x="1492.529297" xlink:href="#DejaVuSans-73"/>
    </g>
   </g>
  </g>
 </g>
 <defs>
  <clipPath id="pa928ae8a61">
   <rect height="208.81" width="370.96" x="47.72" y="26.88"/>
  </clipPath>
 </defs>
</svg>
